<?xml version="1.0" encoding="UTF-8" standalone="no"?>
<svg
   xmlns:dc="http://purl.org/dc/elements/1.1/"
   xmlns:cc="http://creativecommons.org/ns#"
   xmlns:rdf="http://www.w3.org/1999/02/22-rdf-syntax-ns#"
   xmlns:svg="http://www.w3.org/2000/svg"
   xmlns="http://www.w3.org/2000/svg"
   xmlns:sodipodi="http://sodipodi.sourceforge.net/DTD/sodipodi-0.dtd"
   xmlns:inkscape="http://www.inkscape.org/namespaces/inkscape"
   width="1029.2738mm"
   height="218.42722mm"
   viewBox="0 0 1029.2738 218.42721"
   version="1.1"
   id="svg8"
   inkscape:version="1.0.1 (3bc2e813f5, 2020-09-07)"
   sodipodi:docname="laptop_holder.svg">
  <defs
     id="defs2" />
  <sodipodi:namedview
     id="base"
     pagecolor="#ffffff"
     bordercolor="#666666"
     borderopacity="1.0"
     inkscape:pageopacity="0.0"
     inkscape:pageshadow="2"
     inkscape:zoom="0.35355339"
     inkscape:cx="2089.5143"
     inkscape:cy="210.06746"
     inkscape:document-units="mm"
     inkscape:current-layer="layer1"
     inkscape:document-rotation="0"
     showgrid="false"
     inkscape:snap-bbox="true"
     inkscape:bbox-paths="true"
     inkscape:bbox-nodes="true"
     inkscape:snap-bbox-edge-midpoints="true"
     inkscape:snap-bbox-midpoints="true"
     inkscape:object-paths="true"
     inkscape:snap-intersection-paths="true"
     inkscape:snap-smooth-nodes="true"
     inkscape:snap-midpoints="true"
     inkscape:snap-object-midpoints="true"
     inkscape:snap-center="true"
     inkscape:snap-text-baseline="true"
     inkscape:snap-page="true"
     inkscape:snap-grids="true"
     inkscape:window-width="1920"
     inkscape:window-height="1017"
     inkscape:window-x="-8"
     inkscape:window-y="-8"
     inkscape:window-maximized="1"
     inkscape:snap-global="false"
     fit-margin-left="5"
     lock-margins="true"
     fit-margin-top="5"
     fit-margin-right="5"
     fit-margin-bottom="5">
    <inkscape:grid
       type="xygrid"
       id="grid853"
       units="mm"
       spacingx="1"
       spacingy="1"
       color="#009d00"
       opacity="0.16470588"
       empspacing="10"
       originx="440.55989"
       originy="-145.9824" />
  </sodipodi:namedview>
  <metadata
     id="metadata5">
    <rdf:RDF>
      <cc:Work
         rdf:about="">
        <dc:format>image/svg+xml</dc:format>
        <dc:type
           rdf:resource="http://purl.org/dc/dcmitype/StillImage" />
        <dc:title></dc:title>
      </cc:Work>
    </rdf:RDF>
  </metadata>
  <g
     inkscape:label="Layer 1"
     inkscape:groupmode="layer"
     id="layer1"
     transform="translate(440.55989,-145.9824)">
    <path
       id="path851"
       style="fill:none;stroke:#000000;stroke-width:0.0499999;stroke-linecap:butt;stroke-linejoin:miter;stroke-miterlimit:4;stroke-dasharray:none;stroke-opacity:1"
       d="m 152.60619,321.74535 -81.039365,-38.80365 1.25906,-2.6294 -88.015398,-42.14818 -1.267849,2.64644 -80.327248,-38.46236 -29.2959,157.03639 30.14967,-0.0276 -0.009,-9.99989 2.7,-0.002 0.009,9.99991 234.2999,-0.21435 -0.009,-9.99989 2.7,-0.002 0.009,9.99989 30.1501,-0.0276 -0.0457,-50.00002 -10.00448,-4.99054 z m -227.79462,-80.40737 183.08061,87.83286 -199.00017,0.18206 7.472473,-41.33899 -9.837733,-1.7945 0.48314,-2.65645 9.837736,1.79452 z"
       sodipodi:nodetypes="ccccccccccccccccccccccccccc" />
    <path
       id="path858"
       style="fill:none;fill-opacity:1;stroke:#000000;stroke-width:0.05;stroke-miterlimit:4;stroke-dasharray:none;stroke-opacity:1"
       d="m 183.68431,314.96941 h 90.14957 v 3 h 96.7 v -3 h 90.15043 v 40 h -90.15043 v -3 h -96.7 v 3 h -90.14957 z"
       sodipodi:nodetypes="ccccccccccccc" />
    <path
       id="path862"
       style="opacity:1;fill:none;fill-opacity:1;stroke:#000000;stroke-width:0.05;stroke-miterlimit:4;stroke-dasharray:none;stroke-opacity:1"
       d="m 183.67971,188.15935 10.15417,-0.0204 v 10 h 2.7 v -10 h 34.3 v 10 h 2.7 v -10 h 300.3 v 10 h 2.7 v -10 h 34.3 v 10 h 2.7 v -10 l 10.15503,0.0204 v 19.98419 c 0,0 -304.02454,-0.0787 -400.0092,0 z"
       sodipodi:nodetypes="ccccccccccccccccccccc" />
    <path
       id="path859"
       style="fill:none;fill-opacity:1;stroke:#000000;stroke-width:0.05;stroke-miterlimit:4;stroke-dasharray:none;stroke-opacity:1"
       d="m 182.62597,268.55977 h 90.14957 v 3 h 96.7 v -3 h 90.15043 v 40 h -90.15043 v -3 h -96.7 v 3 h -90.14957 z"
       sodipodi:nodetypes="ccccccccccccc" />
    <path
       id="path861"
       style="opacity:1;fill:none;fill-opacity:1;stroke:#000000;stroke-width:0.05;stroke-miterlimit:4;stroke-dasharray:none;stroke-opacity:1"
       d="m 180.45152,216.04083 10.15417,-0.0204 v 10 h 2.7 v -10 h 34.3 v 10 h 2.7 v -10 h 300.3 v 10 h 2.7 v -10 h 34.3 v 10 h 2.7 v -10 l 10.15503,0.0204 v 19.98419 c 0,0 -304.02454,-0.0787 -400.0092,0 z"
       sodipodi:nodetypes="ccccccccccccccccccccc" />
    <path
       id="path863"
       style="opacity:1;fill:none;fill-opacity:1;stroke:#000000;stroke-width:0.05;stroke-miterlimit:4;stroke-dasharray:none;stroke-opacity:1"
       d="m 175.40564,242.42364 10.15417,-0.0204 v 10 h 2.7 v -10 h 34.3 v 10 h 2.7 v -10 h 300.3 v 10 h 2.7 v -10 h 34.3 v 10 h 2.7 v -10 l 10.15503,0.0204 v 19.98419 c 0,0 -304.02454,-0.0787 -400.0092,0 z"
       sodipodi:nodetypes="ccccccccccccccccccccc" />
    <path
       id="path865"
       style="fill:none;stroke:#000000;stroke-width:0.0499999;stroke-linecap:butt;stroke-linejoin:miter;stroke-miterlimit:4;stroke-dasharray:none;stroke-opacity:1"
       d="m -98.42262,185.27907 81.039368,38.80365 -1.25906,2.6294 88.015398,42.14818 1.267849,-2.64644 80.327245,38.46236 29.2959,-157.03639 -30.14967,0.0276 0.009,9.99989 -2.7,0.002 -0.009,-9.99991 -234.2999,0.21435 0.009,9.99989 -2.7,0.002 -0.009,-9.99989 -30.1501,0.0276 0.0457,50.00002 10.00448,4.99054 z m 227.79462,80.40737 -183.080609,-87.83286 199.000169,-0.18206 -7.47247,41.33899 9.83773,1.7945 -0.48314,2.65645 -9.83773,-1.79452 z"
       sodipodi:nodetypes="ccccccccccccccccccccccccccc" />
    <path
       id="path867"
       style="fill:none;stroke:#000000;stroke-width:0.0499999;stroke-linecap:butt;stroke-linejoin:miter;stroke-miterlimit:4;stroke-dasharray:none;stroke-opacity:1"
       d="m -156.84308,321.2412 -81.03937,-38.80365 1.25906,-2.6294 -88.0154,-42.14818 -1.26785,2.64644 -80.32725,-38.46236 -29.2959,157.03639 30.14967,-0.0276 -0.009,-9.99989 2.7,-0.002 0.009,9.99991 234.29991,-0.21435 -0.009,-9.99989 2.7,-0.002 0.009,9.99989 30.1501,-0.0276 -0.0457,-50.00002 -10.00448,-4.99054 z m -227.79463,-80.40737 183.08061,87.83286 -199.00017,0.18206 7.47248,-41.33899 -9.83774,-1.7945 0.48314,-2.65645 9.83774,1.79452 z"
       sodipodi:nodetypes="ccccccccccccccccccccccccccc" />
    <path
       id="path869"
       style="fill:none;stroke:#000000;stroke-width:0.0499999;stroke-linecap:butt;stroke-linejoin:miter;stroke-miterlimit:4;stroke-dasharray:none;stroke-opacity:1"
       d="m -406.7076,186.4924 81.03937,38.80365 -1.25906,2.6294 88.0154,42.14818 1.26785,-2.64644 80.32725,38.46236 29.2959,-157.03639 -30.14967,0.0276 0.009,9.99989 -2.7,0.002 -0.009,-9.99991 -234.29991,0.21435 0.009,9.99989 -2.7,0.002 -0.009,-9.99989 -30.1501,0.0276 0.0457,50.00002 10.00448,4.99054 z m 227.79463,80.40737 -183.08062,-87.83286 199.00018,-0.18206 -7.47247,41.33899 9.83773,1.7945 -0.48314,2.65645 -9.83773,-1.79452 z"
       sodipodi:nodetypes="ccccccccccccccccccccccccccc" />
  </g>
</svg>
